<svg xmlns="http://www.w3.org/2000/svg" viewBox="0 0 800 600" width="800" height="600" role="img">
<defs>
  <radialGradient id="wash" cx="30%" cy="20%" r="85%">
    <stop offset="0%" stop-color="#ffffff" stop-opacity="0.85"/>
    <stop offset="60%" stop-color="#f6f2e6" stop-opacity="0"/>
    <stop offset="100%" stop-color="#dcb45f" stop-opacity="0.16"/>
  </radialGradient>
  <filter id="grainFilter">
    <feTurbulence type="fractalNoise" baseFrequency="0.9" numOctaves="3" stitchTiles="stitch"/>
  </filter>
  <pattern id="grain" width="180" height="180" patternUnits="userSpaceOnUse">
    <rect width="180" height="180" filter="url(#grainFilter)"/>
  </pattern>
</defs>
<rect width="800" height="600" fill="#f6f2e6"/>
<rect width="800" height="600" fill="url(#wash)"/>
<ellipse cx="400" cy="314" rx="212" ry="206" fill="rgba(16,24,32,0.10)"/>
<circle cx="400" cy="300" r="208" fill="#fdfbf5"/>
<circle cx="400" cy="300" r="208" fill="none" stroke="rgba(16,24,32,0.10)" stroke-width="2"/>
<circle cx="400" cy="300" r="176" fill="none" stroke="rgba(16,24,32,0.06)" stroke-width="1.5"/>
<path d="M526.4 306.0C529.2 331.6 529.2 370.4 514.2 389.0C499.1 407.5 461.2 412.6 436.2 417.3C411.1 422.0 388.1 422.5 363.9 417.1C339.8 411.7 304.3 403.5 291.3 385.0C278.3 366.5 285.1 331.7 285.9 306.0C286.7 280.3 284.3 252.4 296.3 230.6C308.2 208.9 334.3 181.3 357.6 175.5C380.9 169.7 412.6 185.7 435.8 195.7C459.1 205.7 482.1 217.0 497.2 235.4C512.3 253.8 523.6 280.4 526.4 306.0Z" fill="#bf9540"/>
<path d="M509.0 296.0C512.5 320.5 523.4 357.8 511.5 377.0C499.6 396.2 463.4 402.3 437.5 411.4C411.6 420.5 377.9 439.6 355.9 431.8C333.9 424.0 317.9 387.2 305.6 364.6C293.4 341.9 285.2 320.9 282.5 296.0C279.7 271.1 276.9 238.1 289.2 215.5C301.4 192.8 331.6 164.5 355.8 160.1C380.1 155.7 412.2 177.6 434.7 189.3C457.2 200.9 478.4 212.2 490.8 230.0C503.2 247.8 505.6 271.5 509.0 296.0Z" fill="#dcb45f"/>
<path d="M465.9 284.0C464.7 299.0 447.2 312.9 436.2 326.2C425.3 339.4 413.5 361.7 400.0 363.6C386.5 365.5 366.9 347.2 355.2 337.3C343.5 327.5 337.6 317.9 330.0 304.4C322.4 290.8 307.2 271.9 309.4 256.1C311.6 240.4 328.1 218.6 343.2 209.8C358.3 201.1 383.5 199.3 400.2 203.7C416.8 208.1 431.9 222.9 442.9 236.3C453.8 249.7 467.0 269.0 465.9 284.0Z" fill="rgba(255,255,255,0.14)"/>
<ellipse cx="435.1" cy="236.6" rx="12.1" ry="6.7" fill="#f0dca4" transform="rotate(348.4 435.1 236.6)" opacity="0.92"/><ellipse cx="444.8" cy="258.7" rx="13.5" ry="7.4" fill="#8a6a34" transform="rotate(99.3 444.8 258.7)" opacity="0.92"/><ellipse cx="316.7" cy="337.7" rx="13.0" ry="7.2" fill="#f0dca4" transform="rotate(213.9 316.7 337.7)" opacity="0.92"/><path d="M343.4 227.8 Q350.7 221.6 358.0 227.8 Q350.7 234.0 343.4 227.8 Z" fill="#8a6a34" transform="rotate(245.5 350.7 227.8)" opacity="0.92"/><path d="M341.0 220.3 Q353.2 210.0 365.3 220.3 Q353.2 230.6 341.0 220.3 Z" fill="#8a6a34" transform="rotate(248.2 353.2 220.3)" opacity="0.92"/><ellipse cx="330.4" cy="394.5" rx="5.7" ry="3.2" fill="#f0dca4" transform="rotate(270.1 330.4 394.5)" opacity="0.92"/><ellipse cx="422.3" cy="289.3" rx="6.3" ry="3.5" fill="#8a6a34" transform="rotate(257.3 422.3 289.3)" opacity="0.92"/><ellipse cx="424.0" cy="203.0" rx="11.0" ry="6.1" fill="#f0dca4" transform="rotate(305.8 424.0 203.0)" opacity="0.92"/><ellipse cx="309.8" cy="297.6" rx="13.3" ry="7.3" fill="#f0dca4" transform="rotate(283.8 309.8 297.6)" opacity="0.92"/><path d="M343.2 376.4 Q351.8 369.1 360.4 376.4 Q351.8 383.8 343.2 376.4 Z" fill="#f0dca4" transform="rotate(106.6 351.8 376.4)" opacity="0.92"/><path d="M457.4 211.1 Q465.5 204.2 473.6 211.1 Q465.5 218.0 457.4 211.1 Z" fill="#f0dca4" transform="rotate(104.9 465.5 211.1)" opacity="0.92"/>
<path d="M389.8 260.6 Q395.4 255.8 401.1 260.6 Q395.4 265.3 389.8 260.6 Z" fill="#f0dca4" transform="rotate(268.8 395.4 260.6)" opacity="0.92"/><path d="M257.0 319.2 Q262.2 314.8 267.3 319.2 Q262.2 323.6 257.0 319.2 Z" fill="#f0dca4" transform="rotate(177.9 262.2 319.2)" opacity="0.92"/><ellipse cx="327.1" cy="304.2" rx="6.7" ry="3.7" fill="#f0dca4" transform="rotate(127.2 327.1 304.2)" opacity="0.92"/><ellipse cx="397.5" cy="355.3" rx="5.8" ry="3.2" fill="#f0dca4" transform="rotate(12.2 397.5 355.3)" opacity="0.92"/>
<rect width="800" height="600" fill="url(#grain)" opacity="0.05"/>
</svg>